<?xml version="1.0" encoding="UTF-8" standalone="no"?>
<!-- Created with Inkscape (http://www.inkscape.org/) -->
<svg xmlns:dc="http://purl.org/dc/elements/1.1/" xmlns:cc="http://creativecommons.org/ns#" xmlns:rdf="http://www.w3.org/1999/02/22-rdf-syntax-ns#" xmlns:svg="http://www.w3.org/2000/svg" xmlns="http://www.w3.org/2000/svg" xmlns:xlink="http://www.w3.org/1999/xlink" xmlns:sodipodi="http://sodipodi.sourceforge.net/DTD/sodipodi-0.dtd" xmlns:inkscape="http://www.inkscape.org/namespaces/inkscape" width="744.09448819" height="1052.3622047" id="svg2" version="1.1" inkscape:version="0.48.2 r9819" sodipodi:docname="senbonzakura sakura.svg">
  <defs id="defs4"/>
  <sodipodi:namedview id="base" pagecolor="#ffffff" bordercolor="#666666" borderopacity="1.0" inkscape:pageopacity="0.0" inkscape:pageshadow="2" inkscape:zoom="0.35" inkscape:cx="806.90211" inkscape:cy="432.93978" inkscape:document-units="px" inkscape:current-layer="layer2" showgrid="false" inkscape:window-width="1366" inkscape:window-height="706" inkscape:window-x="-8" inkscape:window-y="-8" inkscape:window-maximized="1"/>
  <metadata id="metadata7">
    <rdf:RDF>
      <cc:Work rdf:about="">
        <dc:format>image/svg+xml</dc:format>
        <dc:type rdf:resource="http://purl.org/dc/dcmitype/StillImage"/>
        <dc:title/>
      </cc:Work>
    </rdf:RDF>
  </metadata>
  <g inkscape:label="Layer 1" inkscape:groupmode="layer" id="layer1" style="display:none">
    <image y="-505.03302" x="-1.0714302" id="image2993" xlink:href="file:///C:/Users/Darcy/Pictures/Sewing/SenbonzakuraMiku1.jpg" height="2174.5381" width="3076.9714"/>
  </g>
  <g inkscape:groupmode="layer" id="layer2" inkscape:label="Layer" style="display:inline">
    <path style="color:#000000;fill:#ffaaaa;fill-opacity:1;stroke:none;stroke-width:0.2;marker:none;visibility:visible;display:inline;overflow:visible;enable-background:accumulate" d="m 298.78619,357.24657 c -20.18827,-59.12285 96.69571,-161.85832 125.45579,-155.73819 28.76006,6.12015 40.37654,62.00686 40.37654,62.00686 0,0 50.44768,-36.20021 72.10104,-33.16644 21.65335,3.03375 63.44888,165.83233 4.32606,210.53496 82.19515,-28.84043 188.66025,51.69307 191.7887,74.98505 3.12842,23.29201 -51.91275,57.68081 -51.91275,57.68081 0,0 41.09605,32.44053 43.26061,53.35475 2.16457,20.91421 -105.26747,80.75313 -180.25252,80.75313 54.79675,79.31111 -7.47864,188.31796 -23.07233,196.11479 -15.5937,7.79685 -64.89093,-21.63031 -70.65899,-28.84041 -7.21014,20.18828 -30.28242,57.68079 -49.02869,59.12283 -18.74629,1.44202 -122.57173,-79.31112 -113.91963,-151.41213 -51.91273,57.68081 -188.214482,65.30356 -203.324854,44.70262 -15.110359,-20.60093 8.65212,-80.75314 8.65212,-80.75314 0,0 -52.301395,4.53876 -67.774942,-14.4202 C 11.004479,715.26605 56.526775,590.85387 141.60597,564.8975 69.504961,564.89749 5.6343531,418.98809 32.012432,383.20294 c 15.560075,-21.10919 80.753128,-12.97817 80.753128,-12.97817 0,0 -16.060252,-66.6035 -4.32606,-74.98507 10.09415,-7.21011 131.22385,-10.09414 190.34669,62.00687 z" id="path2997" inkscape:connector-curvature="0" sodipodi:nodetypes="czczczczczczczcscscsc" inkscape:export-filename="C:\Users\Darcy\Pictures\Sewing\senbonzakura sakura.png" inkscape:export-xdpi="120.92795" inkscape:export-ydpi="120.92795"/>
  </g>
</svg>