<?xml version="1.0" encoding="UTF-8"?>
<!-- Generator: Adobe Illustrator 16.0.0, SVG Export Plug-In . SVG Version: 6.00 Build 0)  -->
<!DOCTYPE svg PUBLIC "-//W3C//DTD SVG 1.1//EN" "http://www.w3.org/Graphics/SVG/1.1/DTD/svg11.dtd">
<svg version="1.1" id="Layer_1" xmlns:x="http://ns.adobe.com/Extensibility/1.0/" xmlns:i="http://ns.adobe.com/AdobeIllustrator/10.0/" xmlns:graph="http://ns.adobe.com/Graphs/1.0/" xmlns="http://www.w3.org/2000/svg" xmlns:xlink="http://www.w3.org/1999/xlink" xmlns:a="http://ns.adobe.com/AdobeSVGViewerExtensions/3.0/" x="0px" y="0px" width="864px" height="864px" viewBox="0 0 864 864" enable-background="new 0 0 864 864" xml:space="preserve">
<path fill-rule="evenodd" clip-rule="evenodd" d="M441.325,365.278c-13.238-5.056-23.954-9.146-34.667-13.235  c0.169-1.637,0.338-3.274,0.507-4.914c28.584-15.729,57.168-31.462,86.517-47.609c0,38.527,0,75.72,0,112.912  c-1.652,0.683-3.301,1.371-4.956,2.054c-7.373-10.828-14.745-21.656-23.284-34.193c-6.357,8.976-12.598,17.364-18.376,26.056  c-5.705,8.593-11.528,17.189-16.294,26.307c-51.434,98.451-196.474,98.037-256.033,4.138c-11.54-18.195-22.254-36.915-33.953-56.396  c-7.426,11.526-14.294,22.178-21.161,32.834c-1.111-0.419-2.224-0.842-3.339-1.262c-1.865-37.021-3.73-74.038-5.72-113.513  c31.02,16.128,60.403,31.399,94.597,49.177c-14.978,6.932-26.126,12.093-38.71,17.913c0.932,1.825,2.297,5.875,4.751,9.095  c17.933,23.516,40.302,41.62,67.604,53.115c16.193,6.823,25.561,2.739,29.617-14.449c3.703-15.679,5.68-31.949,6.624-48.065  c2.788-47.595,4.698-95.237,6.925-142.86c0.624-13.319-7.347-22.578-21.23-23.006c-19.155-0.59-38.369-0.725-57.495,0.213  c-4.223,0.206-9.861,4.85-11.971,8.935c-8.438,16.341-24.572,19.99-34.525,4.817c-6.747-10.289-9.831-24.229-10.645-36.791  c-0.734-11.368,7.502-20.058,19.537-22.642c11.751-2.523,19.397,3.014,25.548,12.898c2.239,3.6,7.877,6.953,12.098,7.128  c18.652,0.767,37.437,1.391,55.999-0.115c8.999-0.729,17.61-6.263,26.929-9.825c2.868-12.842,3.052-22.307-12.805-29.815  c-26.962-12.769-34.842-47.992-19.868-75.442c15.763-28.899,47.386-38.313,76.689-22.834c27.851,14.712,38.102,44.848,23.308,72.603  c-4.917,9.226-12.03,19.448-20.828,23.939c-14.226,7.261-15.316,17.198-13.121,30.052c27.265,20.019,58.311,8.872,87.786,10.289  c2.449,0.12,5.896-4.037,7.56-6.96c9.043-15.875,24.863-17.85,37.392-4.343c14.313,15.429,10.016,46.199-8.01,57.344  c-10.942,6.766-22.398,4.011-27.735-9.016c-3.845-9.39-9.239-10.925-17.956-10.523c-16.688,0.764-33.417,0.702-50.125,0.994  c-20.713,0.358-26.983,6.691-25.814,27.053c3.382,58.876,6.626,117.767,10.628,176.606c1.818,26.739,14.944,35.576,38.132,22.462  c21.828-12.35,40.832-29.829,60.47-45.8C436.417,376.943,438.414,370.201,441.325,365.278z M334.502,85.853  c0.169-18.057-13.238-32.179-30.979-32.627c-17.375-0.439-33.7,14.994-33.891,32.038c-0.201,17.93,14.914,33.666,32.216,33.539  C320.041,118.668,334.327,104.255,334.502,85.853z"/>
</svg>