<svg xmlns="http://www.w3.org/2000/svg" xmlns:xlink="http://www.w3.org/1999/xlink" version="1.1" x="0px" y="0px" viewBox="0 0 62 118.75" enable-background="new 0 0 62 95" xml:space="preserve"><path d="M26.061,94.85h12.553c0,0-4.064-14.465-1.555-22.236l-10.998-0.836C26.061,71.777,28.451,81.342,26.061,94.85z"/><path d="M37.164,48.176H24.611c0,0,4.064,14.465,1.554,22.236l10.999,0.838C37.164,71.25,34.773,61.686,37.164,48.176z"/><path d="M24.228,73.576c1.781,1.209-3.218,5.553-3.218,5.553s-3.861,3.242-5.64,4.928c1.823-2.799,3.005-6.352,4.793-8.742  C21.887,73.037,22.811,72.975,24.228,73.576"/><path d="M24.879,71.619c-0.098,2.152-6.416,0.168-6.416,0.168s-4.783-1.592-7.15-2.227c3.339,0.088,6.983-0.764,9.957-0.492  C24.111,69.344,24.648,70.1,24.879,71.619"/><path d="M24.61,46.825h12.554c0,0-4.064-14.466-1.554-22.238l-11-0.837C24.61,23.75,27.002,33.315,24.61,46.825z"/><path d="M35.714,0.15H23.161c0,0,4.064,14.466,1.554,22.237l10.999,0.837C35.714,23.225,33.323,13.659,35.714,0.15z"/><path d="M38.891,47.841c1.417-0.599,2.34-0.537,4.064,1.739c1.787,2.391,2.97,5.941,4.792,8.74c-1.777-1.684-5.64-4.924-5.64-4.924  S37.109,49.049,38.891,47.841"/><path d="M38.238,45.885c0.231-1.52,0.769-2.275,3.61-2.552c2.972-0.272,6.617,0.58,9.956,0.493  c-2.366,0.634-7.149,2.226-7.149,2.226S38.337,48.036,38.238,45.885"/><path d="M23.109,24.113c1.781,1.209-3.217,5.554-3.217,5.554s-3.861,3.241-5.641,4.925c1.823-2.799,3.005-6.35,4.793-8.741  C20.77,23.576,21.693,23.513,23.109,24.113"/><path d="M23.762,22.157c-0.098,2.151-6.417,0.166-6.417,0.166s-4.783-1.592-7.149-2.226c3.339,0.088,6.983-0.765,9.956-0.493  C22.993,19.882,23.53,20.637,23.762,22.157"/><text x="0" y="110" fill="#000000" font-size="5px" font-weight="bold" font-family="'Helvetica Neue', Helvetica, Arial-Unicode, Arial, Sans-serif">Created by Arnau Ligorred Estrella</text><text x="0" y="115" fill="#000000" font-size="5px" font-weight="bold" font-family="'Helvetica Neue', Helvetica, Arial-Unicode, Arial, Sans-serif">from the Noun Project</text></svg>