<?xml version="1.0" encoding="UTF-8"?>
<!-- Generator: Adobe Illustrator 16.0.0, SVG Export Plug-In . SVG Version: 6.00 Build 0)  -->
<!DOCTYPE svg PUBLIC "-//W3C//DTD SVG 1.1//EN" "http://www.w3.org/Graphics/SVG/1.1/DTD/svg11.dtd">
<svg version="1.1" id="Layer_1" xmlns:x="http://ns.adobe.com/Extensibility/1.0/" xmlns:i="http://ns.adobe.com/AdobeIllustrator/10.0/" xmlns:graph="http://ns.adobe.com/Graphs/1.0/" xmlns="http://www.w3.org/2000/svg" xmlns:xlink="http://www.w3.org/1999/xlink" xmlns:a="http://ns.adobe.com/AdobeSVGViewerExtensions/3.0/" x="0px" y="0px" width="864px" height="864px" viewBox="0 0 864 864" enable-background="new 0 0 864 864" xml:space="preserve">
<g>
	<path fill-rule="evenodd" clip-rule="evenodd" d="M126.163,417.955c8.778,2.426,24.191,6.441,39.452,10.956   c42.014,12.42,68.671,4.223,92.737-32.345c13.568-20.611,25.21-42.88,34.845-65.621c26.284-62.067,75.839-89.105,139.486-91.405   c67.947-2.459,123.148,22.231,155.089,86.418c9.336,18.759,17.761,38.001,27.749,56.4c26.406,48.642,54.79,60.314,108.082,46.008   c14.839-3.988,29.811-8.479,44.989-9.943c15.519-1.495,20.512,7.11,12.896,20.662c-4.79,8.526-11.415,16.238-18.195,23.383   c-37.651,39.652-75.422,79.199-113.756,118.188c-3.448,3.506-11.435,4.542-16.897,3.768   c-54.539-7.722-108.84-17.295-163.504-23.906c-62.893-7.603-124.433,4.978-185.253,18.912c-29.743,6.815-50.815,6.241-72.119-22.4   c-25.432-34.193-60.059-61.514-90.41-92.099c-6.55-6.598-12.845-13.844-17.553-21.8C92.523,424.077,96.78,417.534,126.163,417.955z   "/>
	<path fill-rule="evenodd" clip-rule="evenodd" fill="#FFFFFF" d="M485.413,466.719c-5.279,21.076-14.73,40.793-40.104,40.438   c-25.679-0.365-40.468-17.299-49.626-45.639c-6.836,8.863-11.9,14.938-16.365,21.426c-2.137,3.109-2.32,7.84-4.857,10.338   c-3.639,3.58-8.85,8.191-12.961,7.803c-3.088-0.289-6.287-7.459-7.977-12.098c-1.439-3.943-0.798-8.648-4.446-10.986   c-5.052-7.551-10.106-15.098-15.158-22.648c9.472-1.861,19.048-3.336,28.39-5.707c8.559-2.168,17.748-3.992,24.814-8.721   c2.506-1.678,0.821-11.888-1.07-17.481c-8.082-23.869-16.117-27.926-40.732-25.783c-6.473,0.561-13.42-4.412-20.149-6.848   c3.462-5.453,6.907-10.918,10.386-16.361c2.619-4.09,5.479-8.041,7.878-12.254c3.462-6.078,6.597-12.338,9.876-18.514   c5.428,5.684,11.336,10.99,16.153,17.153c4.753,6.08,8.405,13.023,13.276,20.766c38.734-47.56,82.66-47.73,116.633,0.045   c5.052-6.469,9.699-11.84,13.633-17.686c2.096-3.119,2.042-8.1,4.604-10.389c4.165-3.72,9.682-5.918,14.628-8.758   c2.504,4.48,5.1,8.911,7.484,13.458c3.017,5.75,5.541,11.787,8.88,17.342c3.126,5.207,7.036,9.943,10.603,14.891   c-7.313,2.541-14.482,5.707-21.979,7.457c-9.063,2.111-21.62-0.174-26.906,5.156c-8.944,9.01-13.364,22.51-19.571,33.914   c13.844,11.897,26.362,17.72,42.74,13.272c4.447-1.205,10.294,2.732,15.495,4.311c-2.463,4.961-4.776,10.002-7.423,14.863   c-3.602,6.611-7.383,13.127-11.225,19.6c-2.521,4.246-5.289,8.342-7.946,12.504c-4.478-3.148-10.483-5.357-13.127-9.645   C503.2,482.121,502.579,467.965,485.413,466.719z"/>
	<path fill-rule="evenodd" clip-rule="evenodd" d="M436.185,400.782c0.184,11.37-10.001,20.726-22.876,20.312   c-12.882-0.417-18.046-9.434-19.452-20.461c-1.199-9.417,11.194-21.589,20.774-21.817   C426.758,378.527,435.978,387.92,436.185,400.782z"/>
	<path fill-rule="evenodd" clip-rule="evenodd" d="M471.132,421.42c-14.839,0.177-27.198-10.542-23.651-21.691   c2.582-8.116,12.04-18.012,19.945-19.602c13.996-2.81,20.125,9.557,21.08,21.868C489.521,415.173,479.404,419.3,471.132,421.42z"/>
	<path fill-rule="evenodd" clip-rule="evenodd" d="M441.369,419.182c5.072,8.564,8.534,14.418,12.896,21.779   c-9.121,0-15.942,0-24.775,0C433.379,433.83,436.634,427.861,441.369,419.182z"/>
</g>
</svg>