<?xml version="1.0" encoding="UTF-8"?>
<!-- Generator: Adobe Illustrator 16.0.0, SVG Export Plug-In . SVG Version: 6.00 Build 0)  -->
<!DOCTYPE svg PUBLIC "-//W3C//DTD SVG 1.1//EN" "http://www.w3.org/Graphics/SVG/1.1/DTD/svg11.dtd">
<svg version="1.1" id="Layer_1" xmlns:x="http://ns.adobe.com/Extensibility/1.0/" xmlns:i="http://ns.adobe.com/AdobeIllustrator/10.0/" xmlns:graph="http://ns.adobe.com/Graphs/1.0/" xmlns="http://www.w3.org/2000/svg" xmlns:xlink="http://www.w3.org/1999/xlink" xmlns:a="http://ns.adobe.com/AdobeSVGViewerExtensions/3.0/" x="0px" y="0px" width="864px" height="864px" viewBox="0 0 864 864" enable-background="new 0 0 864 864" xml:space="preserve">
<path fill-rule="evenodd" clip-rule="evenodd" d="M489.316,265.066c20.408-6.829,17.648-23.58,17.2-39.579  c-0.36-12.827-0.075-25.674,2.891-38.463c0.956,21.633,1.913,43.263,2.957,66.802c9.236-1.079,17.484-2.041,26.247-3.063  c-7.377,8.277-24.254,0.593-24.285,20.749c24.787-9.136,49.577-18.269,74.189-27.339c-1.969,10.579-3.854,23.257-6.748,35.698  c-7.267,31.249,2.74,57.55,23.812,79.825c8.428,8.914,10.613,16.739,6.967,28.277c-9.35,29.609-11.754,59.915-5.823,90.617  c0.644,3.33,1.753,6.571,3.384,12.566c32.211-29.198,72.593-21.98,108.456-31.437c0,27.671,0.731,54.383-0.482,81.005  c-0.329,7.235-4.688,17.682-10.359,20.692c-22.911,12.155-27.088,31.305-24.759,54.191c0.151,1.458-0.43,2.994-0.911,5.977  c-4.71,0.316-9.645,0.928-14.579,0.93c-140.333,0.051-280.662,0.177-420.991-0.332c-7.721-0.024-16.941-3.624-22.858-8.634  c-22.503-19.05-43.934-39.363-68.001-61.234c6.656-4.101,12.179-7.509,21.07-12.992c-47.79-28.05-91.104-53.474-134.419-78.9  c0.866-1.48,1.732-2.956,2.599-4.437c35.409,19.047,70.434,38.861,106.396,56.801c17.148,8.556,35.779,14.579,54.272,19.902  c24.928,7.173,45.784-1.96,64.181-19.1c12.462-11.613,25.804-22.282,39.763-34.236c-0.813-1.807-2.198-5.549-4.112-8.998  c-12.743-22.943-16.525-46.791-8.216-72.185c3.726-11.391,2.141-21.389-3.195-33.184c-14.052-31.054-11.661-63.83-0.455-95.364  c1.626-4.574,15.313-9.895,19.482-7.631c16.062,8.722,31.437,3.863,46.981,1.245c4.071-0.684,7.511-5.124,11.239-7.844  c-4.246-0.979-8.463-2.12-12.752-2.859c-1.914-0.33-3.964,0.144-7.146-0.696c21.589-0.508,21.702-14.481,21.095-29.744  c-0.638-15.986-0.145-32.017,1.947-48.316c1.196,22.796,2.392,45.592,3.687,70.226c9.683-0.9,18.487-1.715,27.288-2.534  c0.078,0.464,0.157,0.928,0.235,1.392c-6.195,1.313-12.676,1.899-18.488,4.189c-4.026,1.586-7.127,5.508-10.643,8.389  c1.272,1.797,2.547,3.594,3.825,5.39c18.478-7.976,36.957-15.952,57.997-25.038c-7.911,31.596-30.848,58.208-7.938,93.16  c3.439-14.293,6.317-24.652,8.387-35.171c4.418-22.507,4.245-22.539,28.201-25.386c2.586,2.246,5.264,6.509,7.737,6.394  c10.707-0.508,22.577,0.664,28.239-13.444C498.359,262.583,493.838,263.825,489.316,265.066z M574.015,378.696  c-14.764,2.925-29.624,5.465-44.219,9.07c-3.32,0.818-5.726,5.346-8.55,8.165c3.417,1.85,7.164,5.709,10.202,5.217  c16.372-2.665,32.754-5.734,48.752-10.067c8.076-2.186,15.351-7.337,22.981-11.149c-0.624-1.323-1.251-2.646-1.879-3.969  c-2.548,0.661-5.098,1.326-7.643,1.991c-3.439-3.095-6.93-8.885-10.306-8.819c-18.185,0.354-36.369,1.878-54.468,3.797  c-2.668,0.282-4.885,4.828-7.309,7.402c2.895,1.15,5.891,3.496,8.659,3.258C544.863,382.314,559.427,380.393,574.015,378.696z   M387.385,488.144c6.712,7.02,11.18,12.218,16.234,16.771c2.797,2.518,6.578,5.58,9.904,5.568  c10.187-0.035,13.582,5.972,17.131,14.151c14.13,32.59,41.37,49.543,74.615,48.085c7.465-0.325,11.406-2.204,11.102-10.446  c-0.407-11.076-0.1-22.179-0.1-33.985c-11.196,0-20.756-0.248-30.299,0.043c-33.547,1.029-33.343,1.039-43.012-31.593  c-1.725-5.816-4.807-14.406-9.083-15.704c-14.648-4.44-30.104-6.205-46.492-9.222C387.385,481.07,387.385,486.422,387.385,488.144z   M585.605,519.891c-17.974,2.022-35.08,3.746-52.104,6.057c-3.021,0.411-8.044,3.136-8.17,5.049  c-0.784,12.09-0.712,24.256-0.179,36.365c0.075,1.74,3.954,4.27,6.424,4.803C561.753,578.686,589.271,553.005,585.605,519.891z   M315.253,378.564c20.006-3.975,40.994-3.402,62.271-14.246C359.867,358.96,323.762,367.416,315.253,378.564z M576.159,515.724  c-0.172-1.95-0.345-3.9-0.515-5.854c-14.528,0-29.072-0.348-43.566,0.329c-2.59,0.12-4.976,4.515-7.456,6.936  c2.518,1.774,5.236,5.292,7.521,5.031C546.87,520.479,561.499,517.966,576.159,515.724z M324.264,381.091  c0.047,1.47,0.092,2.947,0.136,4.421c14.06,0,28.137,0.367,42.162-0.31c2.803-0.135,5.41-4.268,8.104-6.553  c-3.035-1.515-6.268-4.622-9.07-4.271C351.756,376.113,338.033,378.765,324.264,381.091z M377.029,473.878  c-14.56,3.101-28.01,5.964-41.46,8.826c0.244,0.946,0.487,1.888,0.733,2.831c13.2,1.448,26.402,2.9,40.727,4.477  C377.029,484.415,377.029,480.224,377.029,473.878z M513.821,509.738c-12.926,3.725-25.624,7.378-38.321,11.037  C506.655,526.879,515.869,523.784,513.821,509.738z M471.895,397.981c0.094,1.376,0.188,2.758,0.278,4.139  c10.657,0,21.33,0.285,31.954-0.282c1.772-0.098,3.343-3.919,5.005-6.017c-2.364-1.245-4.913-3.816-7.052-3.508  C491.957,393.771,481.946,396.015,471.895,397.981z M437.689,424.687c1.436,0.188,2.875,0.379,4.313,0.567  c12.469-17.375,12.755-24.859-1.012-34.86C439.8,402.778,438.743,413.729,437.689,424.687z M382.822,371.896  c0.81,2.744,1.619,5.483,2.428,8.224c13.29-3.853,26.58-7.709,39.87-11.566c-0.464-1.693-0.931-3.389-1.392-5.085  C410.09,366.278,396.455,369.086,382.822,371.896z"/>
<path fill-rule="evenodd" clip-rule="evenodd" d="M73.426,430.812c68.029-59.268,136.06-118.536,204.091-177.804  c-26.901,34.907-40.872,73.684-37.703,117.784c3.101,43.134,21.343,81.161,42.705,117.994c-0.939,1.091-1.878,2.179-2.816,3.264  c-14.298-8.819-28.472-17.853-42.924-26.411c-20.941-12.406-41.217-26.448-63.369-36.165c-25.106-11.014-52.023-13.623-78.727-2.617  c-6.402,2.637-13.313,4.041-19.99,6.01C74.271,432.183,73.849,431.496,73.426,430.812z"/>
</svg>